<svg width="64" height="64" viewBox="0 0 64 64" fill="none" xmlns="http://www.w3.org/2000/svg">
<rect width="64" height="64" rx="10" fill="url(#paint0_linear_1_9)"/>
<path d="M28.9375 20.4375C28.9375 19.8852 28.4898 19.4375 27.9375 19.4375H22.8125C22.2602 19.4375 21.8125 18.9898 21.8125 18.4375V13.3125C21.8125 12.7602 21.3648 12.3125 20.8125 12.3125H19.25C18.6977 12.3125 18.25 12.7602 18.25 13.3125V18.4375C18.25 18.9898 17.8023 19.4375 17.25 19.4375H12.125C11.5727 19.4375 11.125 19.8852 11.125 20.4375V22C11.125 22.5523 11.5727 23 12.125 23H17.25C17.8023 23 18.25 23.4477 18.25 24V29.125C18.25 29.6773 18.6977 30.125 19.25 30.125H20.8125C21.3648 30.125 21.8125 29.6773 21.8125 29.125V24C21.8125 23.4477 22.2602 23 22.8125 23H27.9375C28.4898 23 28.9375 22.5523 28.9375 22V20.4375ZM11.125 40.0313C11.125 39.479 11.5727 39.0312 12.125 39.0312H27.9375C28.4898 39.0312 28.9375 39.479 28.9375 40.0313V41.5937C28.9375 42.146 28.4898 42.5938 27.9375 42.5938H12.125C11.5727 42.5938 11.125 42.146 11.125 41.5937V40.0313ZM11.125 48.9375C11.125 48.3852 11.5727 47.9375 12.125 47.9375H27.9375C28.4898 47.9375 28.9375 48.3852 28.9375 48.9375V50.5C28.9375 51.0523 28.4898 51.5 27.9375 51.5H12.125C11.5727 51.5 11.125 51.0523 11.125 50.5V48.9375ZM36.0625 20.4375C36.0625 19.8852 36.5102 19.4375 37.0625 19.4375H52.875C53.4273 19.4375 53.875 19.8852 53.875 20.4375V22C53.875 22.5523 53.4273 23 52.875 23H37.0625C36.5102 23 36.0625 22.5523 36.0625 22V20.4375ZM48.1874 45.0821C47.7969 44.6916 47.7969 44.0584 48.1874 43.6679L53.1679 38.6874C53.5584 38.2969 53.5584 37.6637 53.1679 37.2732L52.0705 36.1759C51.68 35.7853 51.0469 35.7853 50.6563 36.1759L45.6759 41.1563C45.2853 41.5469 44.6522 41.5469 44.2616 41.1563L39.2812 36.1759C38.8906 35.7853 38.2575 35.7853 37.867 36.1759L36.7696 37.2732C36.3791 37.6637 36.3791 38.2969 36.7696 38.6874L41.7501 43.6679C42.1406 44.0584 42.1406 44.6916 41.7501 45.0821L36.7696 50.0626C36.3791 50.4531 36.3791 51.0863 36.7696 51.4768L37.867 52.5741C38.2575 52.9647 38.8906 52.9647 39.2812 52.5741L44.2616 47.5937C44.6522 47.2031 45.2853 47.2031 45.6759 47.5937L50.6563 52.5741C51.0469 52.9647 51.68 52.9647 52.0705 52.5741L53.1679 51.4768C53.5584 51.0863 53.5584 50.4531 53.1679 50.0626L48.1874 45.0821Z" fill="white"/>
<defs>
<linearGradient id="paint0_linear_1_9" x1="62.5" y1="2" x2="2.5" y2="62.5" gradientUnits="userSpaceOnUse">
<stop stop-color="#F88009"/>
<stop offset="1" stop-color="#DF21A0"/>
</linearGradient>
</defs>
</svg>
