<svg width="74" height="74" viewBox="0 0 74 74" fill="none" xmlns="http://www.w3.org/2000/svg">
<g filter="url(#filter0_d_3_18)">
<rect x="5" y="1" width="64" height="64" rx="10" fill="white"/>
<rect x="4.5" y="0.5" width="65" height="65" rx="10.5" stroke="#E9E9E9"/>
</g>
<g filter="url(#filter1_d_3_18)">
<rect x="42" y="6" width="23" height="55" rx="11.5" fill="url(#paint0_linear_3_18)"/>
</g>
<rect x="45" y="33.898" width="17" height="4.68367" rx="2.34184" fill="white"/>
<rect x="45" y="28" width="17" height="4.68367" rx="2.34184" fill="white"/>
<mask id="path-6-inside-1_3_18" fill="white">
<path fill-rule="evenodd" clip-rule="evenodd" d="M22.7292 36C21.6246 36 20.7292 36.8954 20.7292 38V42.5926L16 42.5926C14.8954 42.5926 14 43.4881 14 44.5926V46.0219C14 47.1264 14.8954 48.0219 16 48.0219H20.7292V52.6145C20.7292 53.7191 21.6246 54.6145 22.7292 54.6145H24.2708C25.3754 54.6145 26.2708 53.7191 26.2708 52.6145V48.0219H31C32.1046 48.0219 33 47.1264 33 46.0219V44.5926C33 43.4881 32.1046 42.5926 31 42.5926L26.2708 42.5926V38C26.2708 36.8954 25.3754 36 24.2708 36H22.7292Z"/>
</mask>
<path fill-rule="evenodd" clip-rule="evenodd" d="M22.7292 36C21.6246 36 20.7292 36.8954 20.7292 38V42.5926L16 42.5926C14.8954 42.5926 14 43.4881 14 44.5926V46.0219C14 47.1264 14.8954 48.0219 16 48.0219H20.7292V52.6145C20.7292 53.7191 21.6246 54.6145 22.7292 54.6145H24.2708C25.3754 54.6145 26.2708 53.7191 26.2708 52.6145V48.0219H31C32.1046 48.0219 33 47.1264 33 46.0219V44.5926C33 43.4881 32.1046 42.5926 31 42.5926L26.2708 42.5926V38C26.2708 36.8954 25.3754 36 24.2708 36H22.7292Z" fill="url(#paint1_linear_3_18)"/>
<path d="M20.7292 42.5926L20.7292 43.5926L21.7292 43.5926V42.5926H20.7292ZM16 42.5926L16 41.5926H16V42.5926ZM20.7292 48.0219H21.7292V47.0219H20.7292V48.0219ZM26.2708 48.0219V47.0219H25.2708V48.0219H26.2708ZM31 42.5926L31 43.5926H31V42.5926ZM26.2708 42.5926H25.2708V43.5926L26.2708 43.5926L26.2708 42.5926ZM21.7292 38C21.7292 37.4477 22.1769 37 22.7292 37V35C21.0723 35 19.7292 36.3431 19.7292 38H21.7292ZM21.7292 42.5926V38H19.7292V42.5926H21.7292ZM16 43.5926L20.7292 43.5926L20.7292 41.5926L16 41.5926L16 43.5926ZM15 44.5926C15 44.0403 15.4477 43.5926 16 43.5926V41.5926C14.3431 41.5926 13 42.9358 13 44.5926H15ZM15 46.0219V44.5926H13V46.0219H15ZM16 47.0219C15.4477 47.0219 15 46.5741 15 46.0219H13C13 47.6787 14.3431 49.0219 16 49.0219V47.0219ZM20.7292 47.0219H16V49.0219H20.7292V47.0219ZM21.7292 52.6145V48.0219H19.7292V52.6145H21.7292ZM22.7292 53.6145C22.1769 53.6145 21.7292 53.1668 21.7292 52.6145H19.7292C19.7292 54.2713 21.0723 55.6145 22.7292 55.6145V53.6145ZM24.2708 53.6145H22.7292V55.6145H24.2708V53.6145ZM25.2708 52.6145C25.2708 53.1668 24.8231 53.6145 24.2708 53.6145V55.6145C25.9277 55.6145 27.2708 54.2713 27.2708 52.6145H25.2708ZM25.2708 48.0219V52.6145H27.2708V48.0219H25.2708ZM31 47.0219H26.2708V49.0219H31V47.0219ZM32 46.0219C32 46.5741 31.5523 47.0219 31 47.0219V49.0219C32.6569 49.0219 34 47.6787 34 46.0219H32ZM32 44.5926V46.0219H34V44.5926H32ZM31 43.5926C31.5523 43.5926 32 44.0403 32 44.5926H34C34 42.9358 32.6569 41.5926 31 41.5926V43.5926ZM26.2708 43.5926L31 43.5926L31 41.5926L26.2708 41.5926L26.2708 43.5926ZM25.2708 38V42.5926H27.2708V38H25.2708ZM24.2708 37C24.8231 37 25.2708 37.4477 25.2708 38H27.2708C27.2708 36.3431 25.9277 35 24.2708 35V37ZM22.7292 37H24.2708V35H22.7292V37Z" fill="white" mask="url(#path-6-inside-1_3_18)"/>
<rect x="13.5" y="16.5" width="20" height="6" rx="3" fill="url(#paint2_linear_3_18)" stroke="white"/>
<defs>
<filter id="filter0_d_3_18" x="0" y="0" width="74" height="74" filterUnits="userSpaceOnUse" color-interpolation-filters="sRGB">
<feFlood flood-opacity="0" result="BackgroundImageFix"/>
<feColorMatrix in="SourceAlpha" type="matrix" values="0 0 0 0 0 0 0 0 0 0 0 0 0 0 0 0 0 0 127 0" result="hardAlpha"/>
<feOffset dy="4"/>
<feGaussianBlur stdDeviation="2"/>
<feComposite in2="hardAlpha" operator="out"/>
<feColorMatrix type="matrix" values="0 0 0 0 0 0 0 0 0 0 0 0 0 0 0 0 0 0 0.25 0"/>
<feBlend mode="normal" in2="BackgroundImageFix" result="effect1_dropShadow_3_18"/>
<feBlend mode="normal" in="SourceGraphic" in2="effect1_dropShadow_3_18" result="shape"/>
</filter>
<filter id="filter1_d_3_18" x="40" y="6" width="27" height="59" filterUnits="userSpaceOnUse" color-interpolation-filters="sRGB">
<feFlood flood-opacity="0" result="BackgroundImageFix"/>
<feColorMatrix in="SourceAlpha" type="matrix" values="0 0 0 0 0 0 0 0 0 0 0 0 0 0 0 0 0 0 127 0" result="hardAlpha"/>
<feOffset dy="2"/>
<feGaussianBlur stdDeviation="1"/>
<feComposite in2="hardAlpha" operator="out"/>
<feColorMatrix type="matrix" values="0 0 0 0 0 0 0 0 0 0 0 0 0 0 0 0 0 0 0.25 0"/>
<feBlend mode="normal" in2="BackgroundImageFix" result="effect1_dropShadow_3_18"/>
<feBlend mode="normal" in="SourceGraphic" in2="effect1_dropShadow_3_18" result="shape"/>
</filter>
<linearGradient id="paint0_linear_3_18" x1="53.5" y1="6" x2="53.5" y2="61" gradientUnits="userSpaceOnUse">
<stop stop-color="#FF0048"/>
<stop offset="1" stop-color="#FF8D50"/>
</linearGradient>
<linearGradient id="paint1_linear_3_18" x1="23.5" y1="36" x2="23.5" y2="54.6145" gradientUnits="userSpaceOnUse">
<stop stop-color="#FF0948"/>
<stop offset="1" stop-color="#FF8D50"/>
</linearGradient>
<linearGradient id="paint2_linear_3_18" x1="13" y1="19.5" x2="34" y2="19.5" gradientUnits="userSpaceOnUse">
<stop stop-color="#FF0948"/>
<stop offset="1" stop-color="#FF854F"/>
</linearGradient>
</defs>
</svg>
